<svg xmlns="http://www.w3.org/2000/svg" xmlns:xlink="http://www.w3.org/1999/xlink" width="500" zoomAndPan="magnify" viewBox="0 0 375 374.999991" height="500" preserveAspectRatio="xMidYMid meet" version="1.0"><defs><g/><clipPath id="fcbfd44038"><path d="M 256.160156 166.003906 L 298.160156 166.003906 L 298.160156 190.003906 L 256.160156 190.003906 Z M 256.160156 166.003906 " clip-rule="nonzero"/></clipPath><clipPath id="c1f3e95748"><path d="M 256.160156 175.039062 L 298.160156 175.039062 L 298.160156 199.039062 L 256.160156 199.039062 Z M 256.160156 175.039062 " clip-rule="nonzero"/></clipPath><clipPath id="cce0cd72d0"><path d="M 256.160156 184.078125 L 298.160156 184.078125 L 298.160156 208.078125 L 256.160156 208.078125 Z M 256.160156 184.078125 " clip-rule="nonzero"/></clipPath></defs><g clip-path="url(#fcbfd44038)"><path fill="#ff66c4" d="M 298.15625 187.328125 L 277.160156 166 L 256.167969 187.328125 L 258.800781 190.003906 L 277.160156 171.351562 L 295.523438 190.003906 Z M 298.15625 187.328125 " fill-opacity="1" fill-rule="nonzero"/></g><g clip-path="url(#c1f3e95748)"><path fill="#00c2cb" d="M 298.15625 196.363281 L 277.160156 175.039062 L 256.167969 196.363281 L 258.800781 199.039062 L 277.160156 180.390625 L 295.523438 199.039062 Z M 298.15625 196.363281 " fill-opacity="1" fill-rule="nonzero"/></g><g clip-path="url(#cce0cd72d0)"><path fill="#006894" d="M 298.15625 205.402344 L 277.160156 184.074219 L 256.167969 205.402344 L 258.800781 208.078125 L 277.160156 189.425781 L 295.523438 208.078125 Z M 298.15625 205.402344 " fill-opacity="1" fill-rule="nonzero"/></g><g fill="#006894" fill-opacity="1"><g transform="translate(66.16667, 206.624986)"><g><path d="M 24.78125 -10.09375 C 24.78125 -6.71875 23.65625 -4.09375 21.40625 -2.21875 C 19.164062 -0.34375 16.097656 0.59375 12.203125 0.59375 C 8.304688 0.59375 4.796875 -0.140625 1.671875 -1.609375 L 3.328125 -6.859375 C 4.492188 -6.316406 5.851562 -5.867188 7.40625 -5.515625 C 8.957031 -5.171875 10.359375 -5 11.609375 -5 C 13.710938 -5 15.25 -5.507812 16.21875 -6.53125 C 17.195312 -7.550781 17.6875 -8.890625 17.6875 -10.546875 L 17.6875 -29.90625 L 5.53125 -29.90625 L 5.53125 -35.3125 L 24.78125 -35.3125 Z M 24.78125 -10.09375 "/></g></g></g><g fill="#00c2cb" fill-opacity="1"><g transform="translate(95.393231, 206.624986)"><g><path d="M 19.375 0.625 C 12.457031 0.625 7.894531 -1.097656 5.6875 -4.546875 C 4.445312 -6.460938 3.828125 -8.941406 3.828125 -11.984375 L 3.828125 -23.046875 C 3.828125 -28.003906 5.367188 -31.472656 8.453125 -33.453125 C 10.984375 -35.078125 14.65625 -35.894531 19.46875 -35.90625 C 26.1875 -35.90625 30.625 -34.070312 32.78125 -30.40625 C 33.988281 -28.351562 34.59375 -25.78125 34.59375 -22.6875 L 34.59375 -12.375 C 34.59375 -7.550781 33.078125 -4.070312 30.046875 -1.9375 C 27.628906 -0.226562 24.070312 0.625 19.375 0.625 Z M 10.953125 -11.203125 C 10.953125 -8.890625 11.660156 -7.269531 13.078125 -6.34375 C 14.503906 -5.414062 16.625 -4.953125 19.4375 -4.953125 C 22.25 -4.953125 24.289062 -5.410156 25.5625 -6.328125 C 26.832031 -7.242188 27.46875 -8.867188 27.46875 -11.203125 L 27.46875 -24 C 27.46875 -26.289062 26.820312 -27.921875 25.53125 -28.890625 C 24.238281 -29.859375 22.207031 -30.34375 19.4375 -30.34375 C 16.664062 -30.34375 14.554688 -29.863281 13.109375 -28.90625 C 11.671875 -27.945312 10.953125 -26.3125 10.953125 -24 Z M 10.953125 -11.203125 "/></g></g></g><g fill="#ff66c4" fill-opacity="1"><g transform="translate(133.807291, 206.624986)"><g><path d="M 19.375 0.625 C 12.457031 0.625 7.894531 -1.097656 5.6875 -4.546875 C 4.445312 -6.460938 3.828125 -8.941406 3.828125 -11.984375 L 3.828125 -23.046875 C 3.828125 -28.003906 5.367188 -31.472656 8.453125 -33.453125 C 10.984375 -35.078125 14.65625 -35.894531 19.46875 -35.90625 C 26.1875 -35.90625 30.625 -34.070312 32.78125 -30.40625 C 33.988281 -28.351562 34.59375 -25.78125 34.59375 -22.6875 L 34.59375 -12.375 C 34.59375 -7.550781 33.078125 -4.070312 30.046875 -1.9375 C 27.628906 -0.226562 24.070312 0.625 19.375 0.625 Z M 10.953125 -11.203125 C 10.953125 -8.890625 11.660156 -7.269531 13.078125 -6.34375 C 14.503906 -5.414062 16.625 -4.953125 19.4375 -4.953125 C 22.25 -4.953125 24.289062 -5.410156 25.5625 -6.328125 C 26.832031 -7.242188 27.46875 -8.867188 27.46875 -11.203125 L 27.46875 -24 C 27.46875 -26.289062 26.820312 -27.921875 25.53125 -28.890625 C 24.238281 -29.859375 22.207031 -30.34375 19.4375 -30.34375 C 16.664062 -30.34375 14.554688 -29.863281 13.109375 -28.90625 C 11.671875 -27.945312 10.953125 -26.3125 10.953125 -24 Z M 10.953125 -11.203125 "/></g></g></g><g fill="#006894" fill-opacity="1"><g transform="translate(172.221351, 206.624986)"><g><path d="M 4.546875 0 L 4.546875 -35.3125 L 12.375 -35.3125 L 22.421875 -18.203125 L 32.328125 -35.3125 L 40.296875 -35.3125 L 40.296875 0 L 33.640625 0 L 33.640625 -26.109375 L 24.8125 -10.265625 L 20.046875 -10.265625 L 11.203125 -26 L 11.203125 0 Z M 4.546875 0 "/></g></g></g><g fill="#006894" fill-opacity="1"><g transform="translate(217.054687, 206.624986)"><g><path d="M 11.65625 -21.109375 L 19 -21.109375 C 21.257812 -21.109375 22.609375 -21.703125 23.046875 -22.890625 C 23.285156 -23.566406 23.40625 -24.566406 23.40625 -25.890625 C 23.40625 -27.222656 23.253906 -28.191406 22.953125 -28.796875 C 22.660156 -29.410156 22.125 -29.835938 21.34375 -30.078125 C 20.5625 -30.328125 19.34375 -30.453125 17.6875 -30.453125 L 11.65625 -30.453125 Z M 11.65625 -4.984375 L 18.546875 -4.984375 C 19.984375 -4.984375 21.101562 -5.050781 21.90625 -5.1875 C 22.707031 -5.332031 23.359375 -5.632812 23.859375 -6.09375 C 24.367188 -6.5625 24.695312 -7.15625 24.84375 -7.875 C 25 -8.59375 25.078125 -9.472656 25.078125 -10.515625 C 25.078125 -11.554688 25.046875 -12.34375 24.984375 -12.875 C 24.816406 -14.207031 24.3125 -15.195312 23.46875 -15.84375 C 22.625 -16.488281 21.222656 -16.8125 19.265625 -16.8125 L 11.65625 -16.8125 Z M 4.546875 0 L 4.546875 -35.3125 L 18.140625 -35.3125 C 22.984375 -35.3125 26.300781 -34.554688 28.09375 -33.046875 C 29.019531 -32.242188 29.675781 -31.289062 30.0625 -30.1875 C 30.457031 -29.09375 30.65625 -27.644531 30.65625 -25.84375 C 30.65625 -24.039062 30.332031 -22.597656 29.6875 -21.515625 C 29.050781 -20.441406 27.863281 -19.679688 26.125 -19.234375 C 28.488281 -18.921875 30.082031 -18.03125 30.90625 -16.5625 C 31.738281 -15.09375 32.15625 -13.144531 32.15625 -10.71875 C 32.15625 -10.570312 32.15625 -10.425781 32.15625 -10.28125 C 32.15625 -6.8125 31.195312 -4.226562 29.28125 -2.53125 C 27.375 -0.84375 24.234375 0 19.859375 0 Z M 4.546875 0 "/></g></g></g></svg>